# AST/ASF file generated using VICON BodyLanguage
# -----------------------------------------------
:version 1.10
:name VICON
:units
  mass 1.0
  length 0.45
  angle deg
:documentation
   .ast/.asf automatically generated from VICON data using
   VICON BodyBuilder and BodyLanguage model FoxedUp or BRILLIANT.MOD
:root
   order TX TY TZ RX RY RZ
   axis XYZ
   position 0 0 0  
   orientation 0 0 0 
:bonedata
  begin
     id 1 
     name lhipjoint
     direction 0.589753 -0.68606 0.426044 
     length 2.54082 
     axis 0 0 0  XYZ
  end
  begin
     id 2 
     name lfemur
     direction 0.34202 -0.939693 0  
     length 7.04539  
     axis 0 0 20  XYZ
    dof rx ry rz
    limits (-160.0 20.0)
           (-70.0 70.0)
           (-60.0 70.0)
  end
  begin
     id 3 
     name ltibia
     direction 0.34202 -0.939693 0   
     length 7.83772   
     axis 0 0 20   XYZ
    dof rx
    limits (-10.0 170.0)
  end
  begin
     id 4 
     name lfoot
     direction 0.0596604 -0.163915 0.984669   
     length 2.39542   
     axis -90 7.62852e-016 20   XYZ
    dof rx rz
    limits (-45.0 90.0)
           (-70.0 20.0)
  end
  begin
     id 5 
     name ltoes
     direction 1.53514e-011 -4.21954e-011 1   
     length 1.2047   
     axis -90 7.62852e-016 20   XYZ
    dof rx
    limits (-90.0 20.0)
  end
  begin
     id 6 
     name rhipjoint
     direction -0.580585 -0.69168 0.429534   
     length 2.52018  
     axis 0 0 0  XYZ 
  end
  begin
     id 7 
     name rfemur
     direction -0.34202 -0.939693 0   
     length 7.0101   
     axis 0 0 -20   XYZ
    dof rx ry rz
    limits (-160.0 20.0)
           (-70.0 70.0)
           (-70.0 60.0)
  end
  begin
     id 8 
     name rtibia
     direction -0.34202 -0.939693 0   
     length 7.70628   
     axis 0 0 -20   XYZ
    dof rx
    limits (-10.0 170.0)
 end
 begin
     id 9 
     name rfoot
     direction -0.0696237 -0.19129 0.979061   
     length 2.52466  
     axis -90 -7.62852e-016 -20   XYZ
    dof rx rz
    limits (-45.0 90.0)
           (-20.0 70.0)
  end
  begin
     id 10 
     name rtoes
     direction -1.53519e-011 -4.21793e-011 1   
     length 1.266   
     axis -90 -7.62852e-016 -20   XYZ
    dof rx
    limits (-90.0 20.0)
  end
  begin
     id 11 
     name lowerback
     direction 0.00381965 0.995707 -0.0924856   
     length 2.20825   
     axis 0 0 0   XYZ
    dof rx ry rz
    limits (-20.0 45.0)
           (-30.0 30.0)
           (-30.0 30.0)
  end
  begin
     id 12 
     name upperback
     direction -0.0139043 0.999634 -0.0231929   
     length 2.21517   
     axis 0 0 0   XYZ
    dof rx ry rz
    limits (-20.0 45.0)
           (-30.0 30.0)
           (-30.0 30.0)
  end
  begin
     id 13 
     name thorax
     direction -0.0143933 0.999691 0.0202892   
     length 2.22911   
     axis 0 0 0   XYZ
    dof rx ry rz
    limits (-20.0 45.0)
           (-30.0 30.0)
           (-30.0 30.0)
  end
  begin
     id 14 
     name lowerneck
     direction -0.0251153 0.981819 0.188153   
     length 1.61782   
     axis 0 0 0   XYZ
    dof rx ry rz
    limits (-20.0 45.0)
           (-30.0 30.0)
           (-30.0 30.0)
  end
  begin
     id 15 
     name upperneck
     direction 0.0563891 0.969357 -0.239095   
     length 1.64526   
     axis 0 0 0   XYZ
    dof rx ry rz
    limits (-20.0 45.0)
           (-30.0 30.0)
           (-30.0 30.0)
  end
  begin
     id 16
     name head
     direction 0.0208328 0.99459 -0.101773  
     length 1.67436  
     axis 0 0 0   XYZ
    dof rx ry rz
    limits (-20.0 45.0)
           (-30.0 30.0)
           (-30.0 30.0)
  end
  begin
     id 17 
     name lclavicle
     direction 0.917689 0.397224 0.00772059  
     length 3.31102  
     axis 0 0 0   XYZ
    dof ry rz
    limits (-20.0 10.0)
           (0.0 20.0)
  end
  begin
     id 18 
     name lhumerus
     direction 1 -4.4896e-011 2.32308e-027   
     length 5.25537   
     axis 180 -30 -90   XYZ
    dof rx ry rz
    limits (-60.0 90.0)
           (-90.0 90.0)
           (-90.0 90.0)
  end
  begin
     id 19
     name lradius
     direction 1 -4.49005e-011 -2.04271e-027   
     length 3.38855   
     axis 180 -30 -90   XYZ
    dof rx
    limits (-10.0 170.0)
  end
  begin
     id 20
     name lwrist
     direction 1 -4.48892e-011 2.56952e-028   
     length 1.69428   
     axis -5.12785e-016 90 90   XYZ
    dof ry
    limits (-180.0 0.0)
 end
  begin
     id 21 
     name lhand
     direction 1 -4.48966e-011 5.13905e-028   
     length 0.614516   
     axis -3.27915e-016 90 90   XYZ
    dof rx rz
    limits (-90.0 90.0)
           (-45.0 45.0)
  end
  begin
     id 22 
     name lfingers
     direction 1 -4.48979e-011 1.02781e-027   
     length 0.495439   
     axis -6.5583e-016 90 90   XYZ
    dof rx
    limits (0.0 90.0)
  end
  begin
     id 23
     name lthumb
     direction 0.707107 -6.35001e-011 0.707107   
     length 0.711354   
     axis -90 45 2.85299e-015   XYZ
    dof rx rz
    limits (-45.0 45.0)
           (-45.0 45.0)
  end
  begin
     id 24 
     name rclavicle
     direction -0.938556 0.342765 -0.0403177   
     length 3.27019  
     axis 0 0 0   XYZ 
    dof ry rz
    limits (-10.0 20.0)
           (-20.0 0.0)
  end
  begin
     id 25 
     name rhumerus
     direction -1 -4.48966e-011 2.52291e-027  
     length 5.38183   
     axis 180 30 90   XYZ
    dof rx ry rz
    limits (-90.0 60.0)
           (-90.0 90.0)
           (-90.0 90.0)
  end
  begin
     id 26 
     name rradius
     direction -1 -4.4896e-011 1.5797e-027   
     length 3.16988   
     axis 180 30 90   XYZ
    dof rx
    limits (-10.0 170.0)
  end
  begin
     id 27 
     name rwrist
     direction -1 -4.48947e-011 2.56952e-028   
     length 1.58494   
     axis -5.12785e-016 -90 -90   XYZ
    dof ry
    limits (-180.0 0.0)
  end
  begin
     id 28
     name rhand
     direction -1 -4.49098e-011 5.13905e-028   
     length 0.637679   
     axis -3.27915e-016 -90 -90   XYZ
    dof rx rz
    limits (-90.0 90.0)
           (-45.0 45.0)
  end
  begin
     id 29
     name rfingers
     direction -1 -4.49026e-011 1.02781e-027   
     length 0.514113   
     axis -6.5583e-016 -90 -90   XYZ
    dof rx
    limits (0.0 90.0)
  end
  begin
     id 30
     name rthumb
     direction -0.707107 -6.3491e-011 0.707107   
     length 0.738167   
     axis -90 -45 -2.85299e-015   XYZ
    dof rx rz
    limits (-45.0 45.0)
           (-45.0 45.0)
  end
:hierarchy
  begin
    root lhipjoint rhipjoint lowerback
    lhipjoint lfemur
    lfemur ltibia
    ltibia lfoot
    lfoot ltoes
    rhipjoint rfemur
    rfemur rtibia
    rtibia rfoot
    rfoot rtoes
    lowerback upperback
    upperback thorax
    thorax lowerneck lclavicle rclavicle
    lowerneck upperneck
    upperneck head
    lclavicle lhumerus
    lhumerus lradius
    lradius lwrist
    lwrist lhand lthumb
    lhand lfingers
    rclavicle rhumerus
    rhumerus rradius
    rradius rwrist
    rwrist rhand rthumb
    rhand rfingers
  end

#!OML:ASF H:\Swim\Project 1\Capture day 1\Session 1\swimmer.ASF
:FULLY-SPECIFIED
:DEGREES
2256
root 2.57988 16.7222 -22.5857 98.1926 -8.34719 26.5106
lowerback 8.70239 -1.85926 -8.71908
upperback -8.55882 -4.67793 -6.12335
thorax -14.3576 -1.71452 -1.00846
lowerneck -2.52254 -12.1445 -7.78638
upperneck -7.14854 -15.9982 8.1
head -0.502593 -8.06106 3.69075
rclavicle 0 -1.31198e-013
rhumerus 38.1276 -13.7795 -11.2918
rradius 50.1177
rwrist -177.164
rhand -23.0864 -11.7375
rfingers 7.12502
rthumb 3.35962 -41.6908
lclavicle 0 -1.31198e-013
lhumerus 77.4507 -8.70379 25.0591
lradius 41.4779
lwrist -4.89143
lhand -21.0046 -5.03574
lfingers 7.12502
lthumb 5.36988 24.8762
rfemur -32.8596 -14.5317 2.04345
rtibia 40.5677
rfoot -19.1899 -17.8743
rtoes 9.87225
lfemur -42.725 -27.3253 -23.9155
ltibia 25.1596
lfoot 10.5665 1.13889
ltoes -9.98655
2257
root 2.59644 16.7246 -22.5824 98.2386 -8.44656 26.404
lowerback 8.61204 -1.87834 -8.71874
upperback -8.58747 -4.70598 -6.2085
thorax -14.3439 -1.73406 -1.10233
lowerneck -2.47495 -12.0782 -7.42099
upperneck -7.14907 -15.9209 7.9534
head -0.56042 -8.02819 3.59238
rclavicle 1.08139e-013 -3.49861e-014
rhumerus 38.344 -13.6175 -11.0464
rradius 50.2824
rwrist -177.221
rhand -23.2434 -11.8072
rfingers 7.12502
rthumb 3.20804 -41.7628
lclavicle 1.08139e-013 -3.49861e-014
lhumerus 77.7851 -8.45792 24.8038
lradius 41.4862
lwrist -4.89968
lhand -20.7374 -4.96705
lfingers 7.12502
lthumb 5.62787 24.9382
rfemur -32.9292 -14.473 1.98219
rtibia 40.5813
rfoot -19.0514 -17.7845
rtoes 9.8406
lfemur -42.8142 -27.3083 -23.8551
ltibia 25.1644
lfoot 10.5831 1.13048
ltoes -9.90954
2258
root 2.61311 16.7272 -22.5793 98.29 -8.54866 26.3025
lowerback 8.51446 -1.90004 -8.71885
upperback -8.61385 -4.73682 -6.29717
thorax -14.3233 -1.7554 -1.19957
lowerneck -2.43699 -12.0125 -7.03115
upperneck -7.15071 -15.8444 7.79502
head -0.619328 -7.99593 3.48588
rclavicle -2.22639e-014 5.40694e-014
rhumerus 38.5674 -13.476 -10.787
rradius 50.4204
rwrist -177.299
rhand -23.521 -11.8887
rfingers 7.12502
rthumb 2.93995 -41.8482
lclavicle -2.22639e-014 5.40694e-014
lhumerus 78.1291 -8.19972 24.5173
lradius 41.4649
lwrist -4.94476
lhand -20.4698 -4.8577
lfingers 7.12502
lthumb 5.8863 25.0405
rfemur -33.0074 -14.4515 1.92545
rtibia 40.6091
rfoot -18.8681 -17.678
rtoes 9.79572
lfemur -42.9065 -27.2818 -23.8053
ltibia 25.1767
lfoot 10.6016 1.11593
ltoes -9.92675
2259
root 2.62994 16.7302 -22.5765 98.3498 -8.65395 26.2049
lowerback 8.40552 -1.9258 -8.71608
upperback -8.63753 -4.77126 -6.3888
thorax -14.2927 -1.77937 -1.30126
lowerneck -2.41147 -11.9464 -6.62581
upperneck -7.15032 -15.767 7.62773
head -0.676881 -7.96327 3.37339
rclavicle -5.08889e-014 -8.0309e-014
rhumerus 38.8038 -13.3512 -10.5051
rradius 50.531
rwrist -177.371
rhand -23.9165 -11.9895
rfingers 7.12502
rthumb 2.55797 -41.9539
lclavicle -5.08889e-014 -8.0309e-014
lhumerus 78.4715 -7.92284 24.206
lradius 41.4204
lwrist -4.99794
lhand -20.1894 -4.73287
lfingers 7.12502
lthumb 6.15701 25.1577
rfemur -33.1022 -14.4828 1.87668
rtibia 40.6547
rfoot -18.6427 -17.5306
rtoes 9.75972
lfemur -43.0064 -27.2482 -23.7624
ltibia 25.1968
lfoot 10.6304 1.10786
ltoes -9.93763
2260
root 2.64702 16.7334 -22.5739 98.421 -8.7581 26.1156
lowerback 8.28264 -1.95701 -8.70401
upperback -8.66184 -4.8099 -6.48007
thorax -14.2545 -1.80664 -1.40726
lowerneck -2.3877 -11.8784 -6.22955
upperneck -7.14824 -15.6871 7.45189
head -0.733068 -7.92896 3.2599
rclavicle -2.8625e-014 -5.64548e-014
rhumerus 39.0549 -13.2356 -10.2029
rradius 50.6132
rwrist -177.407
rhand -24.4119 -12.1168
rfingers 7.12502
rthumb 2.07957 -42.0864
lclavicle -2.8625e-014 -5.64548e-014
lhumerus 78.8059 -7.63454 23.8887
lradius 41.3556
lwrist -5.02846
lhand -19.8633 -4.60536
lfingers 7.12502
lthumb 6.47174 25.2758
rfemur -33.2199 -14.5785 1.84388
rtibia 40.7217
rfoot -18.3379 -17.3804
rtoes 9.63774
lfemur -43.116 -27.2063 -23.7238
ltibia 25.2241
lfoot 10.6726 1.08833
ltoes -9.99906
2261
root 2.66424 16.7368 -22.5715 98.4895 -8.85784 26.0301
lowerback 8.1577 -1.99006 -8.68213
upperback -8.6796 -4.84819 -6.56829
thorax -14.2074 -1.83496 -1.51515
lowerneck -2.38555 -11.8108 -5.83636
upperneck -7.14169 -15.607 7.27055
head -0.783683 -7.89413 3.14369
rclavicle -3.18055e-014 -3.33958e-014
rhumerus 39.3185 -13.1272 -9.86163
rradius 50.6679
rwrist -177.399
rhand -24.9512 -12.2616
rfingers 7.12502
rthumb 1.55874 -42.2357
lclavicle -3.18055e-014 -3.33958e-014
lhumerus 79.1327 -7.32543 23.5543
lradius 41.2714
lwrist -5.02532
lhand -19.5067 -4.48296
lfingers 7.12502
lthumb 6.81603 25.3873
rfemur -33.3426 -14.7165 1.8245
rtibia 40.8106
rfoot -17.9936 -17.2061
rtoes 9.50975
lfemur -43.2145 -27.1485 -23.6949
ltibia 25.2603
lfoot 10.7154 1.06
ltoes -10.0494
2262
root 2.68149 16.74 -22.5692 98.5493 -8.95359 25.9433
lowerback 8.03765 -2.02078 -8.65456
upperback -8.69196 -4.88221 -6.65453
thorax -14.1574 -1.86185 -1.62449
lowerneck -2.40241 -11.7446 -5.4451
upperneck -7.12515 -15.5287 7.08351
head -0.827389 -7.85974 3.02441
rclavicle -6.36111e-015 6.32135e-014
rhumerus 39.5889 -13.0299 -9.51289
rradius 50.6929
rwrist -177.311
rhand -25.451 -12.4088
rfingers 7.12502
rthumb 1.07599 -42.3859
lclavicle -6.36111e-015 6.32135e-014
lhumerus 79.4528 -7.00614 23.2001
lradius 41.1629
lwrist -5.01598
lhand -19.1262 -4.37846
lfingers 7.12502
lthumb 7.18335 25.4796
rfemur -33.4656 -14.9092 1.82148
rtibia 40.921
rfoot -17.5725 -17.0231
rtoes 9.2971
lfemur -43.293 -27.0728 -23.679
ltibia 25.3071
lfoot 10.7528 1.0252
ltoes -10.1279
